<?xml version="1.0" ?><svg height="512" id="svg2" version="1.1" width="512" xmlns="http://www.w3.org/2000/svg" xmlns:cc="http://creativecommons.org/ns#" xmlns:dc="http://purl.org/dc/elements/1.1/" xmlns:inkscape="http://www.inkscape.org/namespaces/inkscape" xmlns:rdf="http://www.w3.org/1999/02/22-rdf-syntax-ns#" xmlns:sodipodi="http://sodipodi.sourceforge.net/DTD/sodipodi-0.dtd" xmlns:svg="http://www.w3.org/2000/svg"><defs id="defs4"/><g id="layer1" transform="translate(0,-540.36218)"><g id="g4305"><g id="g4345" transform="translate(28,-40.00001)"><g id="text2994" style="font-size:550px;font-style:normal;font-variant:normal;font-weight:normal;font-stretch:normal;text-align:start;line-height:125%;letter-spacing:0px;word-spacing:0px;writing-mode:lr-tb;text-anchor:start;fill:#222222;fill-opacity:1;stroke:none;font-family:Ubuntu;-inkscape-font-specification:Ubuntu"><path d="M 76,66 C 70.764155,66.00052 65.546051,68.14145 61.84375,71.84375 58.141449,75.54605 56.000524,80.76416 56,86 l 0,80 c 5.24e-4,5.23584 2.141449,10.45395 5.84375,14.15625 C 65.546051,183.85855 70.764155,185.99948 76,186 l 20,0 0,10 -20,0 c -5.235845,5.2e-4 -10.453949,2.14145 -14.15625,5.84375 C 58.141449,205.54605 56.000524,210.76416 56,216 l 0,80 c 5.24e-4,5.23584 2.141449,10.45395 5.84375,14.15625 C 65.546051,313.85855 70.764155,315.99948 76,316 l 20,0 0,10 -20,0 c -5.235845,5.2e-4 -10.453949,2.14145 -14.15625,5.84375 C 58.141449,335.54605 56.000524,340.76416 56,346 l 0,80 c 5.24e-4,5.2358 2.141449,10.45395 5.84375,14.15625 C 65.546051,443.85865 70.764155,445.9995 76,446 l 173.625,0 c -2.39172,-4.10536 -3.62452,-8.74791 -3.625,-13.71875 L 246,406 96,406 96,366 c 49.74592,0.11366 99.88054,0.11825 150,0.0937 L 246,326 l -110,0 0,-10 110.25,0 c 0.79167,-5.93465 3.45495,-11.29874 7.8125,-15.65625 5.26904,-5.26908 11.986,-8.06174 19.4375,-8.0625 l 85,0 0,-16.4375 C 271.06285,275.70788 182.88361,276 96,276 l 0,-40 c 95.55289,0.23679 192.37101,0.0714 288.0625,0.0312 1.15804,-0.10208 2.29785,-0.17357 3.4375,-0.125 0.46367,0.0198 0.91509,0.0805 1.375,0.125 C 397.88549,236.02795 407.01514,236 416,236 l 0,18.65625 40,40 L 456,216 c -5.2e-4,-5.23584 -2.14145,-10.45395 -5.84375,-14.15625 C 446.45395,198.14145 441.23584,196.00052 436,196 l -20,0 0,-10 20,0 c 5.23584,-5.2e-4 10.45395,-2.14145 14.15625,-5.84375 3.7023,-3.7023 5.84323,-8.92041 5.84375,-14.15625 l 0,-80 C 455.99948,80.76416 453.85855,75.54605 450.15625,71.84375 446.45395,68.14145 441.23584,66.00052 436,66 z m 20,40 320,0 0,40 c -106.11244,-0.43934 -214.01284,0 -320,0 z m 40,80 240,0 0,10 -240,0 z" id="path17" style="font-size:medium;font-style:normal;font-variant:normal;font-weight:normal;font-stretch:normal;text-indent:0;text-align:start;text-decoration:none;line-height:125%;letter-spacing:0;word-spacing:0;text-transform:none;direction:ltr;block-progression:tb;writing-mode:lr-tb;text-anchor:start;baseline-shift:baseline;color:#000000;fill:#222222;fill-opacity:1;stroke:none;stroke-width:40;marker:none;visibility:visible;display:inline;overflow:visible;enable-background:accumulate;font-family:Ubuntu;-inkscape-font-specification:Ubuntu" transform="translate(-28,580.36219)"/><path d="m 238,1012.6542 c 1.9e-4,1.9635 0.80855,3.9148 2.19692,5.3031 1.38836,1.3884 3.33964,2.1967 5.30308,2.1969 l 105,0 0,48.7501 c 0.006,2.9413 1.91439,5.791 4.63206,6.9158 2.71767,1.125 6.08199,0.4578 8.1648,-1.6189 l 112.5,-112.50005 c 1.38441,-1.38804 2.18997,-3.33646 2.18997,-5.29688 0,-1.96041 -0.80556,-3.90883 -2.18997,-5.29687 l -112.5,-112.5 c -2.08281,-2.07679 -5.44713,-2.7439 -8.1648,-1.619 -2.71767,1.1249 -4.62633,3.97459 -4.63206,6.91587 l 0,48.75 -105,0 c -1.96344,2e-4 -3.91472,0.80856 -5.30308,2.19693 -1.38837,1.38836 -2.19673,3.33963 -2.19692,5.30307 z" id="path2991-1" style="font-size:medium;font-style:normal;font-variant:normal;font-weight:normal;font-stretch:normal;text-indent:0;text-align:start;text-decoration:none;line-height:normal;letter-spacing:normal;word-spacing:normal;text-transform:none;direction:ltr;block-progression:tb;writing-mode:lr-tb;text-anchor:start;baseline-shift:baseline;color:#000000;fill:#2980b9;fill-opacity:1;fill-rule:nonzero;stroke:none;stroke-width:20;marker:none;visibility:visible;display:inline;overflow:visible;enable-background:accumulate;font-family:Sans;-inkscape-font-specification:Sans"/></g></g></g></g></svg>